<?xml version="1.0" standalone="no"?>
<!DOCTYPE svg PUBLIC "-//W3C//DTD SVG 20010904//EN"
 "http://www.w3.org/TR/2001/REC-SVG-20010904/DTD/svg10.dtd">
<svg version="1.0" xmlns="http://www.w3.org/2000/svg"
 width="860.000000pt" height="223.000000pt" viewBox="0 0 860.000000 223.000000"
 preserveAspectRatio="xMidYMid meet">
<metadata>
Created by potrace 1.16, written by Peter Selinger 2001-2019
</metadata>
<g transform="translate(0.000000,223.000000) scale(0.100000,-0.100000)"
fill="#000000" stroke="none">
<path d="M1038 1690 c-169 -31 -364 -148 -470 -283 -19 -24 -1 -10 42 33 41
42 95 90 120 106 58 39 83 52 45 22 -151 -116 -248 -254 -297 -425 -34 -118
-31 -297 6 -409 51 -154 141 -271 251 -324 33 -17 110 -43 170 -59 115 -31
124 -40 18 -17 -35 7 -63 9 -63 5 0 -16 143 -34 265 -33 148 0 218 15 325 69
176 89 281 250 284 435 1 78 -2 91 -32 153 -18 37 -37 65 -42 62 -4 -3 -14 3
-21 12 -25 30 -115 81 -170 97 -187 52 -401 13 -467 -87 -23 -34 -27 -51 -27
-108 0 -62 3 -71 30 -99 51 -54 144 -90 233 -90 54 0 54 -16 0 -40 -90 -39
-215 -4 -293 82 -50 55 -60 91 -52 177 8 98 80 212 157 251 93 47 213 44 372
-10 47 -17 93 -30 102 -30 41 0 114 23 137 43 14 12 19 18 11 13 -8 -6 -5 7 9
33 25 48 35 121 25 177 -10 51 -86 123 -182 173 -89 45 -91 49 -11 22 130 -45
204 -129 231 -261 3 -14 3 -1 1 29 -10 123 -120 225 -287 267 -73 18 -349 27
-420 14z m352 -89 c96 -33 200 -106 228 -161 40 -81 19 -172 -47 -200 -27 -11
-42 -7 -154 38 -72 30 -149 54 -183 57 -120 14 -251 -30 -330 -112 -61 -63
-83 -113 -95 -220 -16 -144 15 -233 106 -302 48 -37 150 -71 210 -71 57 0 163
28 196 51 41 29 82 94 74 118 -5 18 -14 21 -69 21 -109 0 -210 47 -236 109
-18 44 11 97 70 129 39 21 55 23 115 19 125 -9 278 -86 331 -167 89 -134 -16
-382 -196 -464 -82 -37 -210 -60 -294 -53 -159 14 -278 69 -392 182 -118 117
-165 231 -165 400 0 157 57 296 172 420 183 195 446 277 659 206z"/>
<path d="M4493 1659 c-30 -6 -83 -34 -83 -44 0 -2 8 -2 18 2 12 4 9 -3 -10
-23 -39 -43 -70 -121 -62 -158 16 -76 62 -134 126 -161 68 -28 182 -15 230 26
23 19 23 19 -12 -1 -19 -11 -42 -20 -50 -20 -8 1 -1 8 15 17 17 8 41 25 54 37
28 25 71 116 71 152 0 61 -55 134 -115 154 -49 16 -148 26 -182 19z m151 -81
c29 -13 66 -81 66 -122 0 -67 -59 -126 -125 -126 -76 0 -122 60 -112 146 9 88
94 138 171 102z"/>
<path d="M6503 1624 c-17 -9 -40 -26 -49 -37 -10 -12 -12 -16 -4 -9 27 23 32
12 7 -18 -39 -46 -60 -120 -48 -168 26 -96 102 -155 200 -156 69 0 121 12 102
24 -10 6 -9 9 7 14 28 9 90 80 98 113 7 25 8 25 15 8 5 -13 8 -1 8 35 1 101
-47 165 -139 189 -75 20 -164 22 -197 5z m189 -70 c31 -16 67 -81 68 -122 0
-43 -39 -102 -78 -119 -124 -52 -226 100 -137 205 13 16 21 32 18 36 -4 4 1 4
11 0 11 -4 17 -3 14 2 -10 16 72 14 104 -2z"/>
<path d="M3850 1531 c-13 -9 -13 -11 0 -11 9 0 5 -6 -10 -17 -35 -24 -48 -42
-62 -87 -10 -32 -13 -35 -20 -20 -8 19 -2 -37 8 -82 5 -19 0 -22 -39 -28 -66
-10 -112 -50 -132 -114 -11 -35 -15 -65 -10 -90 4 -20 3 -33 -1 -29 -5 4 -11
29 -15 55 l-6 47 -2 -43 c-3 -97 95 -203 168 -182 17 5 33 5 35 2 2 -4 0 -45
-5 -92 -27 -283 6 -467 96 -536 32 -24 49 -29 110 -32 75 -4 116 8 145 44 8 9
-3 5 -24 -10 -31 -21 -50 -26 -95 -25 -31 0 -65 4 -76 9 -13 6 -4 7 26 3 26
-3 64 0 85 7 82 26 120 88 139 229 l12 96 5 -65 c3 -36 4 -11 2 55 -2 88 -9
145 -27 213 -13 51 -22 94 -18 96 3 2 31 11 61 21 30 10 70 26 88 37 32 19 62
64 62 90 -1 7 -7 -1 -14 -17 -13 -31 -69 -85 -88 -85 -5 0 4 11 20 25 37 31
62 82 62 127 0 25 3 29 10 18 15 -23 12 20 -3 47 -24 43 -110 93 -160 93 -22
0 -25 6 -31 52 -4 28 -14 67 -22 86 -14 35 -14 35 6 17 11 -10 20 -25 21 -34
0 -11 2 -12 6 -3 9 22 -46 81 -100 109 -57 29 -179 43 -207 24z m155 -61 c18
-11 36 -28 39 -36 3 -9 -10 -2 -29 15 -46 40 -92 42 -132 5 -25 -22 -25 -24
-3 -10 13 9 42 16 63 16 68 0 124 -77 128 -176 2 -44 8 -62 22 -61 70 2 118
-31 142 -98 8 -22 14 -32 15 -22 0 31 -27 83 -55 105 -34 27 -21 29 22 2 38
-22 53 -68 42 -120 -12 -55 -92 -110 -159 -110 -17 0 -38 -7 -46 -15 -9 -8
-11 -15 -6 -15 16 0 36 -187 36 -335 0 -155 -11 -213 -50 -252 -22 -21 -32
-25 -66 -20 -53 7 -87 33 -115 88 -38 74 -46 163 -33 344 7 88 11 174 9 190
-4 28 -7 30 -47 32 -51 2 -86 22 -112 66 -24 39 -25 78 -4 123 23 48 40 58
108 64 l61 5 7 65 c12 114 16 132 34 151 23 26 87 25 129 -1z"/>
<path d="M7405 1431 c-101 -22 -155 -40 -155 -52 0 -5 5 -9 12 -9 7 0 -3 -11
-22 -25 -54 -40 -144 -136 -170 -182 -33 -59 -37 -46 -6 16 33 65 78 115 138
155 26 18 45 35 42 39 -3 3 -16 -3 -27 -14 -12 -11 -27 -17 -35 -14 -7 2 -11
1 -8 -4 7 -11 -20 -34 -32 -27 -11 6 -55 -38 -46 -47 3 -3 -6 -21 -21 -41 -78
-102 -126 -379 -94 -538 26 -128 79 -208 193 -286 85 -59 163 -98 239 -118 78
-21 229 -18 323 6 84 22 206 74 202 87 -1 4 23 33 54 64 60 60 98 119 134 207
21 51 24 54 24 26 0 -18 -15 -61 -33 -98 -18 -36 -27 -60 -20 -54 27 22 12
-11 -31 -70 -24 -32 -65 -74 -90 -92 -48 -35 -60 -48 -27 -31 45 25 130 114
158 168 74 138 102 344 68 478 -27 101 -106 264 -152 311 -45 46 -182 121
-272 148 -72 21 -240 20 -346 -3z m330 -92 c208 -37 297 -189 296 -506 -1
-159 -49 -290 -141 -379 -65 -64 -95 -81 -174 -106 -57 -17 -83 -20 -150 -14
-273 21 -471 185 -494 408 -9 86 0 205 20 252 18 46 78 124 144 188 165 160
278 195 499 157z"/>
<path d="M7491 1058 c-44 -12 -79 -36 -93 -62 -11 -20 -10 -20 9 -3 30 26 35
20 8 -9 -25 -27 -55 -103 -55 -139 0 -40 49 -122 92 -151 32 -23 54 -29 108
-32 81 -5 129 9 177 51 45 39 63 82 63 146 0 63 -13 98 -53 139 -47 49 -183
81 -256 60z m89 -48 c13 -8 12 -10 -5 -11 -11 -1 -26 -2 -33 -2 -16 1 -72 -74
-72 -96 0 -9 8 -1 16 16 32 64 124 93 179 57 26 -17 55 -80 55 -120 0 -49 -31
-95 -76 -116 -65 -28 -127 -7 -158 55 -8 18 -16 26 -16 19 0 -7 7 -27 17 -45
14 -29 14 -31 0 -19 -27 23 -50 98 -44 144 7 51 33 87 78 110 39 21 39 21 59
8z"/>
<path d="M2628 1390 c19 -4 39 -13 45 -20 9 -9 6 -10 -15 -5 -34 9 -102 -22
-145 -64 l-31 -32 -61 21 c-69 23 -197 27 -283 9 -134 -29 -257 -127 -322
-259 -100 -203 -82 -485 39 -619 62 -68 178 -139 242 -147 98 -12 237 29 321
94 21 16 42 32 48 35 7 4 29 -16 52 -47 65 -86 143 -109 201 -60 17 14 29 30
26 34 -3 5 0 12 6 16 28 17 49 93 55 202 4 61 11 109 15 106 12 -7 11 80 -1
236 -33 422 -25 389 -109 468 -37 34 -53 42 -81 41 l-35 -1 33 -8z m23 -110
c5 0 24 -24 43 -53 l34 -52 12 -214 c12 -206 10 -293 -11 -470 -16 -132 -43
-166 -112 -138 -38 16 -67 66 -67 116 0 47 -40 42 -97 -10 -68 -62 -161 -102
-242 -103 -54 0 -78 6 -131 30 -83 39 -119 70 -169 145 -79 118 -105 279 -62
387 12 30 18 58 15 64 -4 6 -2 8 3 5 6 -4 25 16 43 43 43 68 111 126 190 164
59 28 74 31 160 31 82 0 103 -4 152 -27 84 -39 137 -28 138 28 0 32 48 68 78
58 8 -2 18 -4 23 -4z"/>
<path d="M2214 996 c-28 -13 -54 -28 -57 -33 -4 -6 15 1 40 14 26 12 62 23 82
22 l36 -1 -42 -8 c-22 -5 -60 -18 -82 -30 -23 -11 -47 -18 -53 -14 -7 4 -8 3
-4 -5 4 -6 0 -14 -8 -17 -9 -3 -30 -31 -48 -62 -25 -44 -32 -68 -32 -107 2
-115 75 -175 212 -175 121 0 198 56 238 174 32 93 -7 215 -80 250 -50 24 -140
20 -202 -8z m150 -74 c28 -25 56 -92 56 -134 0 -83 -50 -148 -113 -148 -95 0
-175 92 -164 187 6 57 38 91 104 109 54 15 89 10 117 -14z"/>
<path d="M5325 1369 c-139 -20 -224 -60 -300 -140 l-40 -43 55 48 c53 47 137
96 162 96 7 0 -16 -16 -52 -35 -69 -38 -129 -90 -161 -143 -12 -17 -26 -29
-31 -26 -6 4 -8 2 -5 -4 8 -12 -2 -44 -12 -37 -4 2 -20 -40 -36 -93 -24 -80
-29 -115 -29 -202 0 -91 5 -117 31 -196 47 -139 120 -221 240 -272 209 -89
447 -60 589 70 55 51 82 94 100 161 29 110 10 203 -49 233 -44 23 -166 3 -255
-42 -122 -61 -245 -33 -297 67 -12 22 -12 31 3 60 9 18 36 48 60 66 59 44 103
44 192 -1 128 -66 218 -76 275 -31 20 15 20 15 0 8 -10 -4 0 10 23 31 23 21
47 53 54 72 6 19 16 34 20 34 30 0 -21 137 -71 188 -114 117 -266 160 -466
131z m205 -60 c24 -5 68 -25 95 -44 205 -136 121 -390 -89 -269 -174 100 -252
100 -302 1 l-16 -32 34 37 c40 42 72 53 126 43 l37 -8 -45 -13 c-25 -7 -70
-26 -102 -41 -53 -26 -58 -32 -83 -95 -23 -56 -27 -76 -22 -120 10 -77 48
-128 116 -151 67 -22 104 -13 222 54 105 59 139 68 176 44 52 -33 72 -66 74
-120 1 -43 2 -46 8 -20 8 35 -10 107 -35 138 -9 12 -1 5 19 -15 31 -32 37 -45
37 -80 0 -46 -34 -133 -48 -124 -5 3 -26 -12 -47 -34 -21 -21 -60 -48 -86 -60
-27 -11 -49 -25 -49 -30 0 -12 64 13 100 38 40 29 57 35 30 11 -37 -33 -117
-66 -190 -79 -66 -12 -211 -7 -253 9 -95 37 -117 50 -162 96 -78 82 -115 198
-115 367 0 76 22 186 38 197 10 6 32 46 32 56 0 3 -4 3 -10 0 -17 -10 -11 12
7 26 14 12 16 12 9 -1 -4 -8 12 7 35 33 23 27 71 69 106 93 34 25 63 48 63 51
0 10 -82 -43 -132 -85 l-53 -46 40 43 c46 49 112 91 152 96 15 2 51 13 78 24
55 22 136 26 205 10z"/>
<path d="M2980 1350 c-11 -7 -5 -8 20 -5 l35 6 -39 -15 c-22 -8 -55 -30 -74
-49 -31 -32 -35 -42 -45 -123 -8 -64 -7 -116 1 -194 15 -131 16 -360 2 -360
-5 0 -10 -7 -10 -16 0 -9 5 -12 12 -8 8 5 9 -4 5 -34 -16 -99 61 -234 135
-235 125 -3 157 2 190 34 l33 31 -33 -26 c-19 -14 -41 -26 -50 -26 -10 0 -2
10 20 25 21 14 42 34 48 45 6 12 15 18 20 15 19 -12 34 106 34 278 l1 179 36
32 c33 31 41 33 125 39 125 8 129 10 99 56 -31 46 -45 118 -34 173 4 24 8 46
9 50 0 3 13 20 30 36 l29 30 -47 18 c-67 26 -222 26 -275 0 -21 -10 -36 -20
-34 -22 2 -3 17 2 33 11 16 8 38 15 48 15 11 0 -2 -11 -29 -25 -27 -13 -50
-23 -51 -22 -1 1 -9 17 -18 34 -9 18 -30 39 -46 48 -33 17 -156 20 -180 5z
m147 -95 c14 -9 31 -32 39 -51 19 -45 47 -44 87 2 43 49 82 64 166 64 l70 0
-24 -46 c-28 -52 -31 -100 -11 -157 13 -37 13 -37 -13 -42 -46 -10 -152 -69
-182 -102 -42 -49 -51 -91 -58 -293 -4 -119 -11 -193 -19 -207 -43 -76 -162
-50 -205 45 -20 45 -21 64 -22 382 -2 365 1 386 54 415 31 18 82 13 118 -10z"/>
<path d="M4623 1221 c-12 -10 -20 -20 -18 -23 3 -2 -21 -4 -53 -4 -38 1 -67 7
-85 19 -18 12 -27 13 -27 5 0 -6 -10 -22 -21 -34 -41 -44 -46 -106 -33 -394
13 -286 21 -338 62 -413 27 -51 62 -75 122 -88 l35 -7 -32 -1 c-46 -2 -82 15
-122 57 l-35 37 20 -33 c46 -80 152 -96 236 -35 53 38 102 124 118 207 14 72
15 374 0 461 -12 74 -68 189 -112 232 -32 31 -33 31 -55 14z m29 -124 c48
-128 69 -414 40 -557 -24 -120 -94 -212 -139 -184 -31 19 -55 61 -69 120 -21
86 -49 504 -40 594 l7 75 92 -1 92 -2 17 -45z"/>
<path d="M6674 1194 c-18 -14 -18 -15 4 -4 15 7 22 7 22 0 0 -5 -3 -10 -7 -10
-5 -1 -38 -3 -74 -6 -51 -4 -75 -2 -99 11 -17 9 -34 14 -38 11 -3 -3 -1 -6 3
-6 5 0 -3 -12 -17 -27 -15 -17 -29 -48 -34 -78 -13 -73 1 -525 19 -611 29
-135 75 -195 160 -205 l52 -6 -48 -2 c-64 -1 -102 21 -138 84 -33 57 -39 54
-9 -4 24 -48 70 -87 111 -96 42 -10 110 11 152 46 45 37 94 136 107 214 13 79
13 352 0 435 -12 75 -65 191 -109 238 -36 37 -32 36 -57 16z m-121 -75 c28 -7
57 -7 85 -1 l43 10 15 -36 c76 -177 78 -574 3 -701 -11 -18 -18 -36 -15 -38
11 -11 46 65 61 130 8 37 18 116 22 175 3 59 7 109 9 111 2 2 4 -39 4 -91 0
-95 -22 -244 -42 -283 -18 -35 -51 -66 -58 -55 -5 7 -17 5 -38 -7 -31 -18 -31
-18 -60 10 -17 16 -37 52 -46 80 -39 125 -63 707 -29 707 2 0 23 -5 46 -11z"/>
<path d="M6041 629 c-34 -7 -77 -39 -53 -39 7 0 1 -12 -13 -27 -39 -43 -59
-113 -45 -162 13 -50 63 -109 107 -127 36 -15 127 -17 158 -4 14 6 15 9 5 10
-8 0 1 10 22 20 41 22 76 62 85 98 4 18 8 20 14 10 13 -19 11 75 -2 109 -5 15
-22 41 -37 56 -40 42 -168 72 -241 56z m143 -69 c35 -13 66 -67 66 -115 0 -79
-62 -134 -134 -121 -85 16 -119 134 -58 200 42 44 78 55 126 36z"/>
</g>
</svg>
