<?xml version="1.0" standalone="no"?>
<!DOCTYPE svg PUBLIC "-//W3C//DTD SVG 20010904//EN"
 "http://www.w3.org/TR/2001/REC-SVG-20010904/DTD/svg10.dtd">
<svg version="1.0" xmlns="http://www.w3.org/2000/svg"
 width="692.000000pt" height="617.000000pt" viewBox="0 0 692.000000 617.000000"
 preserveAspectRatio="xMidYMid meet">

<g transform="translate(0.000000,617.000000) scale(0.100000,-0.100000)"
fill="#000000" stroke="none">
<path d="M1200 5600 l0 -280 -285 0 -285 0 0 -565 0 -565 -280 0 -280 0 0
-565 0 -565 280 0 280 0 0 285 0 285 283 -2 282 -3 3 -283 2 -282 278 2 277 3
3 283 2 282 280 0 280 0 2 -282 3 -283 280 0 280 0 3 283 2 282 280 0 280 0 0
-285 0 -285 280 0 280 0 0 565 0 565 -280 0 -280 0 0 565 0 565 -280 0 -280 0
0 280 0 280 -285 0 -285 0 0 -280 0 -280 -280 0 -280 0 0 280 0 280 -280 0
-280 0 0 -280z m560 -1130 l0 -280 -280 0 -280 0 0 280 0 280 280 0 280 0 0
-280z m1130 0 l0 -280 -285 0 -285 0 0 280 0 280 285 0 285 0 0 -280z"/>
<path d="M4012 5038 l3 -283 1122 -3 1123 -2 0 -787 0 -786 32 -91 c35 -103
192 -474 238 -567 24 -47 35 -59 48 -54 9 3 29 9 44 12 26 5 27 3 52 -78 78
-259 114 -459 139 -774 2 -22 4 800 5 1828 l2 1867 -1405 0 -1405 0 2 -282z"/>
<path d="M4810 4629 c-26 -10 -80 -57 -80 -69 0 -4 23 4 50 18 46 23 54 24 92
13 22 -7 62 -32 88 -57 l47 -44 27 40 c47 72 111 86 177 39 36 -25 38 -11 4
24 -55 55 -127 59 -184 12 l-29 -25 -57 30 c-59 31 -92 36 -135 19z"/>
<path d="M5716 4437 c-21 -12 -51 -37 -65 -56 l-26 -34 56 32 c92 52 150 40
243 -48 36 -34 50 -42 54 -31 3 8 26 36 52 63 42 42 52 47 92 47 32 0 56 -8
83 -25 48 -33 54 -26 16 18 -61 69 -149 76 -222 17 -37 -29 -42 -31 -57 -17
-30 28 -106 57 -147 57 -23 0 -56 -10 -79 -23z"/>
<path d="M5300 4175 c-52 -16 -116 -68 -144 -115 -20 -36 -17 -35 47 11 107
77 218 57 343 -62 33 -33 63 -59 66 -59 2 0 21 24 42 54 91 132 207 149 327
49 39 -33 37 -16 -6 40 -49 64 -128 102 -195 94 -57 -7 -96 -25 -145 -68 l-35
-31 -60 40 c-54 36 -132 63 -178 61 -9 0 -37 -7 -62 -14z"/>
<path d="M3070 1730 c0 -137 2 -152 20 -170 11 -11 25 -20 30 -20 16 0 12 37
-5 44 -12 4 -15 31 -15 151 0 122 -2 145 -15 145 -13 0 -15 -23 -15 -150z"/>
<path d="M4850 1710 c0 -144 2 -170 15 -170 11 0 15 12 15 49 0 28 4 52 9 56
6 3 27 -19 48 -49 21 -31 46 -55 56 -56 24 0 22 4 -24 65 -44 58 -43 70 1 110
35 31 44 55 22 55 -10 0 -34 -22 -55 -50 -21 -28 -42 -48 -47 -45 -6 4 -10 51
-10 106 0 81 -3 99 -15 99 -13 0 -15 -26 -15 -170z"/>
<path d="M2372 1840 c-48 -29 -72 -75 -72 -138 0 -118 81 -181 204 -158 l36 7
0 74 0 75 -35 0 c-40 0 -50 -26 -12 -32 18 -2 23 -10 25 -42 4 -45 -7 -56 -60
-56 -80 0 -128 47 -128 128 0 91 54 139 147 129 40 -4 53 -2 53 8 0 31 -108
35 -158 5z"/>
<path d="M2930 1835 c0 -16 6 -25 15 -25 9 0 15 9 15 25 0 16 -6 25 -15 25 -9
0 -15 -9 -15 -25z"/>
<path d="M2022 1779 c-59 -29 -92 -88 -92 -161 0 -44 5 -60 24 -81 43 -46 117
-44 181 7 20 15 19 15 -8 16 -15 0 -30 7 -33 15 -5 13 -8 13 -27 0 -26 -18
-69 -19 -85 -3 -29 29 -5 108 44 147 30 23 81 28 107 9 15 -12 15 -18 2 -67
-15 -57 -13 -71 10 -71 24 0 45 43 45 93 0 61 -13 85 -55 103 -46 19 -62 18
-113 -7z"/>
<path d="M2650 1688 c0 -46 6 -94 13 -107 17 -35 59 -46 97 -27 27 13 32 13
37 0 15 -39 23 -3 23 101 0 94 -3 115 -15 115 -11 0 -15 -19 -17 -92 -3 -90
-3 -92 -31 -101 -21 -7 -34 -5 -52 7 -23 15 -25 22 -25 101 0 69 -3 85 -15 85
-12 0 -15 -16 -15 -82z"/>
<path d="M2930 1655 c0 -96 3 -115 15 -115 12 0 15 19 15 115 0 96 -3 115 -15
115 -12 0 -15 -19 -15 -115z"/>
<path d="M3275 1758 c-39 -21 -55 -51 -55 -104 0 -57 27 -98 74 -110 59 -14
126 44 126 110 0 80 -82 139 -145 104z m98 -45 c25 -23 23 -94 -3 -118 -50
-45 -130 -10 -130 57 0 77 76 112 133 61z"/>
<path d="M3535 1745 c-44 -43 -27 -81 48 -105 29 -9 37 -17 37 -35 0 -28 -33
-39 -78 -25 -26 7 -32 6 -32 -6 0 -41 113 -41 132 1 19 42 3 70 -52 93 -29 12
-50 27 -50 36 0 22 34 37 69 30 35 -7 42 9 12 26 -32 16 -60 12 -86 -15z"/>
<path d="M3750 1600 c0 -144 2 -170 15 -170 12 0 15 14 15 70 0 39 2 70 3 70
2 0 18 -7 35 -15 66 -33 122 13 122 100 0 87 -56 133 -122 100 -39 -19 -48
-19 -48 0 0 8 -4 15 -10 15 -6 0 -10 -63 -10 -170z m147 118 c18 -15 26 -69
14 -101 -23 -59 -109 -55 -130 6 -28 80 54 147 116 95z"/>
<path d="M4073 1760 c-35 -14 -29 -34 7 -26 37 7 80 -8 80 -29 0 -10 -14 -17
-40 -21 -81 -13 -117 -77 -70 -124 24 -24 43 -25 81 -3 27 16 29 16 49 -2 18
-16 23 -17 30 -5 7 10 5 18 -4 25 -8 6 -15 40 -18 84 -5 62 -10 78 -28 93 -24
19 -52 22 -87 8z m85 -132 c-6 -62 -98 -74 -98 -13 0 29 23 44 68 45 32 0 33
-2 30 -32z"/>
<path d="M4310 1655 c0 -96 3 -115 15 -115 12 0 15 16 15 84 0 95 9 110 67
110 51 0 63 -22 63 -116 0 -65 3 -78 16 -78 25 0 16 170 -10 199 -26 28 -70
36 -106 17 -27 -13 -32 -13 -37 0 -15 39 -23 3 -23 -101z"/>
<path d="M4653 1760 c-30 -12 -63 -67 -63 -105 0 -70 69 -127 132 -109 45 13
51 38 7 32 -46 -7 -84 8 -98 38 -31 68 17 127 98 121 31 -3 38 19 9 27 -31 8
-58 7 -85 -4z"/>
<path d="M2047 1682 c-18 -19 -27 -39 -27 -60 0 -38 9 -40 37 -9 65 71 56 138
-10 69z"/>
<path d="M280 1379 c-104 -20 -180 -101 -201 -212 -6 -37 -9 -198 -7 -445 3
-338 5 -392 20 -424 29 -65 68 -107 126 -135 l57 -28 3200 0 3200 0 45 21 c58
26 108 76 134 134 20 43 21 60 21 465 0 319 -3 429 -13 457 -22 61 -68 116
-124 145 l-53 28 -3180 1 c-1789 1 -3199 -2 -3225 -7z m374 -181 c83 -25 141
-115 148 -233 l3 -50 -65 0 -65 0 -6 58 c-4 32 -12 69 -19 82 -35 65 -155 57
-192 -14 -17 -35 -24 -471 -8 -532 6 -23 25 -56 41 -72 27 -26 35 -29 74 -24
76 8 101 46 112 171 l6 75 -64 3 -64 3 0 45 0 45 128 3 127 3 0 -226 0 -225
-49 0 c-48 0 -50 1 -61 35 -14 41 -22 44 -39 12 -32 -60 -128 -74 -217 -33
-112 52 -143 148 -144 441 0 177 10 250 45 322 40 81 111 122 214 123 29 0 72
-6 95 -12z m2327 1 c89 -30 136 -101 146 -218 l6 -71 -65 0 -65 0 -5 63 c-6
70 -20 100 -55 116 -53 24 -115 5 -141 -43 -22 -41 -31 -431 -12 -522 15 -73
52 -114 103 -114 68 0 107 63 107 174 l0 46 65 0 65 0 0 -57 c0 -132 -60 -238
-147 -262 -107 -30 -230 4 -276 76 -48 74 -52 101 -52 368 0 268 7 317 57 381
49 61 181 92 269 63z m-1807 -16 c3 -10 43 -200 91 -423 47 -223 87 -415 90
-428 5 -22 4 -23 -62 -20 -76 3 -65 -12 -98 140 l-17 78 -73 0 -74 0 -16 -77
c-33 -154 -22 -138 -99 -141 -67 -3 -68 -2 -63 20 3 13 44 205 92 428 47 223
88 413 91 423 4 14 17 17 69 17 52 0 65 -3 69 -17z m581 -18 c79 -40 109 -95
109 -199 1 -91 -17 -142 -65 -187 l-38 -35 64 -202 c36 -112 65 -210 65 -218
0 -12 -12 -14 -62 -12 l-63 3 -62 200 -61 200 -41 3 -41 3 -2 -203 -3 -203
-67 -3 -68 -3 0 447 0 446 138 -4 c131 -3 142 -5 197 -33z m593 -22 l3 -52
-78 -3 -78 -3 -3 -387 -2 -388 -65 0 -65 0 -2 388 -3 387 -77 3 -78 3 0 48 c0
26 3 51 7 55 4 3 104 5 222 4 l216 -3 3 -52z m192 -388 l0 -445 -65 0 -65 0 0
445 0 445 65 0 65 0 0 -445z m1008 43 l2 -398 111 0 110 0 -3 -42 -3 -43 -177
-3 -178 -2 0 445 0 446 68 -3 67 -3 3 -397z m402 -43 l0 -445 -65 0 -65 0 0
445 0 445 65 0 65 0 0 -445z m260 275 c0 -93 4 -170 8 -170 5 0 46 77 91 170
l82 170 79 0 c44 0 80 -4 80 -8 0 -5 -40 -84 -90 -176 -49 -93 -90 -170 -90
-173 0 -2 47 -119 105 -258 58 -140 105 -259 105 -265 0 -6 -31 -10 -78 -10
l-79 0 -63 163 c-34 89 -69 178 -77 197 l-15 35 -28 -55 c-28 -53 -29 -60 -30
-197 l0 -143 -65 0 -65 0 0 445 0 445 65 0 65 0 0 -170z m768 123 l3 -42 -108
-3 -108 -3 -3 -142 -3 -142 78 -3 78 -3 0 -45 0 -45 -78 -3 -78 -3 3 -157 3
-157 108 -3 108 -3 -3 -42 -3 -42 -175 0 -175 0 -3 430 c-1 237 0 436 3 443 3
10 45 12 177 10 l173 -3 3 -42z m536 38 c7 -10 186 -848 186 -868 0 -9 -17
-13 -64 -13 l-65 0 -16 77 c-33 154 -21 138 -106 141 l-75 3 -13 -63 c-7 -35
-17 -84 -23 -110 l-10 -48 -64 0 c-50 0 -64 3 -64 15 0 8 41 205 90 438 50
234 90 427 90 431 0 9 128 7 134 -3z m591 -17 c63 -33 97 -97 103 -192 6 -102
-10 -157 -58 -203 -43 -41 -100 -59 -189 -59 l-61 0 0 -205 0 -206 -67 3 -68
3 -3 430 c-1 237 0 436 3 443 4 11 37 13 152 10 127 -3 154 -6 188 -24z m518
-2 c61 -39 90 -100 95 -202 4 -71 1 -95 -16 -132 -35 -80 -109 -118 -229 -118
l-63 0 0 -205 0 -206 -67 3 -68 3 -3 430 c-1 237 0 436 3 443 4 11 37 13 158
10 139 -3 155 -5 190 -26z"/>
<path d="M1096 923 c-6 -30 -46 -280 -46 -288 0 -3 25 -5 55 -5 30 0 55 3 55
6 0 15 -51 309 -55 312 -2 2 -6 -9 -9 -25z"/>
<path d="M1567 1103 c-4 -3 -7 -69 -7 -145 l0 -138 35 0 c88 0 135 49 135 140
0 87 -35 128 -121 144 -19 3 -38 3 -42 -1z"/>
<path d="M5421 803 c-12 -76 -25 -146 -27 -155 -5 -16 2 -18 54 -18 l58 0 -25
155 c-14 85 -28 155 -32 155 -3 0 -16 -62 -28 -137z"/>
<path d="M5900 966 l0 -146 45 0 c25 0 61 6 80 14 27 12 36 23 45 58 14 51 7
131 -15 164 -20 31 -40 40 -102 49 l-53 7 0 -146z"/>
<path d="M6410 966 l0 -146 45 0 c96 0 136 39 134 134 -1 96 -38 140 -126 151
l-53 7 0 -146z"/>
</g>
</svg>
